<svg xmlns="http://www.w3.org/2000/svg" xmlns:xlink="http://www.w3.org/1999/xlink" width="1280" zoomAndPan="magnify" viewBox="0 0 960 540.000001" height="720" preserveAspectRatio="xMidYMid meet" version="1.0"><defs><g/><clipPath id="f377e62b76"><path d="M 1 269.5 L 250.175781 269.5 L 250.175781 289.714844 L 1 289.714844 Z M 1 269.5 " clip-rule="nonzero"/></clipPath><clipPath id="78a9f8f780"><path d="M 233 269.628906 L 250.214844 269.628906 L 250.214844 479.988281 L 233 479.988281 Z M 233 269.628906 " clip-rule="nonzero"/></clipPath><clipPath id="f20f8d0d48"><path d="M 250.535156 249.28125 L 499.824219 249.28125 L 499.824219 269.496094 L 250.535156 269.496094 Z M 250.535156 249.28125 " clip-rule="nonzero"/></clipPath><clipPath id="7ed4a5489b"><path d="M 250.5 59.007812 L 267.71875 59.007812 L 267.71875 269.367188 L 250.5 269.367188 Z M 250.5 59.007812 " clip-rule="nonzero"/></clipPath><clipPath id="448d99326e"><path d="M 515 192 L 959.113281 192 L 959.113281 347 L 515 347 Z M 515 192 " clip-rule="nonzero"/></clipPath><clipPath id="d46e493dee"><rect x="0" width="445" y="0" height="155"/></clipPath></defs><g clip-path="url(#f377e62b76)"><path fill="#ff441c" d="M 12.046875 269.628906 L 240.585938 269.628906 C 243.3125 269.628906 245.847656 270.699219 247.644531 272.605469 C 249.441406 274.511719 250.347656 277.097656 250.164062 279.792969 C 249.976562 282.488281 248.71875 285.074219 246.660156 286.980469 C 244.601562 288.886719 241.914062 289.957031 239.191406 289.957031 L 10.65625 289.957031 C 7.929688 289.957031 5.390625 288.886719 3.59375 286.980469 C 1.796875 285.074219 0.890625 282.488281 1.078125 279.792969 C 1.261719 277.097656 2.523438 274.511719 4.582031 272.605469 C 6.636719 270.699219 9.324219 269.628906 12.046875 269.628906 " fill-opacity="1" fill-rule="nonzero"/></g><g clip-path="url(#78a9f8f780)"><path fill="#ff441c" d="M 233.101562 470.570312 L 233.101562 277.738281 C 233.101562 275.4375 234.007812 273.296875 235.613281 271.78125 C 237.222656 270.265625 239.40625 269.5 241.679688 269.65625 C 243.953125 269.8125 246.136719 270.875 247.742188 272.613281 C 249.351562 274.351562 250.257812 276.617188 250.257812 278.917969 L 250.257812 471.746094 C 250.257812 474.046875 249.351562 476.1875 247.742188 477.703125 C 246.136719 479.21875 243.953125 479.984375 241.679688 479.828125 C 239.40625 479.671875 237.222656 478.609375 235.613281 476.871094 C 234.007812 475.136719 233.101562 472.867188 233.101562 470.570312 " fill-opacity="1" fill-rule="nonzero"/></g><g clip-path="url(#f20f8d0d48)"><path fill="#ff441c" d="M 488.660156 269.367188 L 260.125 269.367188 C 257.398438 269.367188 254.859375 268.296875 253.0625 266.390625 C 251.265625 264.484375 250.363281 261.898438 250.546875 259.203125 C 250.730469 256.507812 251.992188 253.921875 254.050781 252.015625 C 256.109375 250.109375 258.792969 249.035156 261.519531 249.035156 L 490.054688 249.035156 C 492.78125 249.035156 495.320312 250.109375 497.117188 252.015625 C 498.914062 253.921875 499.816406 256.507812 499.632812 259.203125 C 499.449219 261.898438 498.1875 264.484375 496.128906 266.390625 C 494.074219 268.296875 491.386719 269.367188 488.660156 269.367188 " fill-opacity="1" fill-rule="nonzero"/></g><g clip-path="url(#7ed4a5489b)"><path fill="#ff441c" d="M 267.613281 68.425781 L 267.613281 261.253906 C 267.613281 263.554688 266.710938 265.699219 265.101562 267.214844 C 263.492188 268.730469 261.3125 269.492188 259.035156 269.335938 C 256.761719 269.179688 254.582031 268.117188 252.972656 266.382812 C 251.363281 264.644531 250.460938 262.378906 250.460938 260.078125 L 250.460938 67.25 C 250.460938 64.949219 251.363281 62.808594 252.972656 61.292969 C 254.582031 59.773438 256.761719 59.011719 259.035156 59.167969 C 261.3125 59.324219 263.492188 60.386719 265.101562 62.125 C 266.710938 63.859375 267.613281 66.125 267.613281 68.425781 " fill-opacity="1" fill-rule="nonzero"/></g><g clip-path="url(#448d99326e)"><g transform="matrix(1, 0, 0, 1, 515, 192)"><g clip-path="url(#d46e493dee)"><g fill="#000000" fill-opacity="1"><g transform="translate(0.796696, 124.209672)"><g><path d="M 56.890625 -99.046875 C 71.316406 -99.046875 82.726562 -95.4375 91.125 -88.21875 C 99.519531 -81.007812 103.71875 -70.707031 103.71875 -57.3125 L 73.859375 -57.3125 C 73.859375 -62.96875 72.375 -67.445312 69.40625 -70.75 C 66.4375 -74.050781 62.210938 -75.703125 56.734375 -75.703125 C 50.421875 -75.703125 45.773438 -73.71875 42.796875 -69.75 C 39.828125 -65.789062 38.34375 -60.273438 38.34375 -53.203125 L 38.34375 -44.140625 C 38.34375 -37.160156 39.828125 -31.664062 42.796875 -27.65625 C 45.773438 -23.65625 50.328125 -21.65625 56.453125 -21.65625 C 62.492188 -21.65625 67.070312 -23.207031 70.1875 -26.3125 C 73.300781 -29.425781 74.859375 -33.816406 74.859375 -39.484375 L 103.71875 -39.484375 C 103.71875 -26.179688 99.632812 -15.988281 91.46875 -8.90625 C 83.3125 -1.832031 71.785156 1.703125 56.890625 1.703125 C 40.285156 1.703125 27.710938 -2.539062 19.171875 -11.03125 C 10.640625 -19.519531 6.375 -32.066406 6.375 -48.671875 C 6.375 -65.273438 10.640625 -77.820312 19.171875 -86.3125 C 27.710938 -94.800781 40.285156 -99.046875 56.890625 -99.046875 Z M 56.890625 -99.046875 "/></g></g></g><g fill="#000000" fill-opacity="1"><g transform="translate(110.880979, 124.209672)"><g><path d="M 107.40625 -39.203125 C 107.40625 -25.898438 103.207031 -15.753906 94.8125 -8.765625 C 86.414062 -1.785156 74.476562 1.703125 59 1.703125 C 43.53125 1.703125 31.570312 -1.785156 23.125 -8.765625 C 14.6875 -15.753906 10.46875 -25.898438 10.46875 -39.203125 L 10.46875 -97.359375 L 41.75 -97.359375 L 41.75 -39.625 C 41.75 -34.144531 43.207031 -29.78125 46.125 -26.53125 C 49.050781 -23.28125 53.296875 -21.65625 58.859375 -21.65625 C 64.429688 -21.65625 68.703125 -23.300781 71.671875 -26.59375 C 74.640625 -29.894531 76.125 -34.238281 76.125 -39.625 L 76.125 -97.359375 L 107.40625 -97.359375 Z M 107.40625 -39.203125 "/></g></g></g><g fill="#000000" fill-opacity="1"><g transform="translate(223.936612, 124.209672)"><g><path d="M 75.703125 0 L 71.59375 -13.71875 L 37.5 -13.71875 L 33.390625 0 L 1.421875 0 L 36.9375 -97.359375 L 73.296875 -97.359375 L 108.8125 0 Z M 44 -35.515625 L 65.09375 -35.515625 L 54.90625 -70.1875 L 54.34375 -70.1875 Z M 44 -35.515625 "/></g></g></g><g fill="#000000" fill-opacity="1"><g transform="translate(334.020894, 124.209672)"><g><path d="M 52.640625 -97.359375 C 86.691406 -97.359375 103.71875 -81.128906 103.71875 -48.671875 C 103.71875 -16.222656 86.691406 0 52.640625 0 L 10.46875 0 L 10.46875 -97.359375 Z M 41.75 -23.34375 L 52.078125 -23.34375 C 65.179688 -23.34375 71.734375 -30.375 71.734375 -44.4375 L 71.734375 -52.921875 C 71.734375 -66.972656 65.179688 -74 52.078125 -74 L 41.75 -74 Z M 41.75 -23.34375 "/></g></g></g></g></g></g></svg>